<svg
  viewBox="0 0 24 24"
  width="1em"
  height="1em"
  xmlns="http://www.w3.org/2000/svg"
  aria-hidden="true"
  focusable="false"
  fill="currentColor"
>
  <path
    fill-rule="evenodd"
    clip-rule="evenodd"
    d="M12 .297c-6.63 0-12 5.373-12 12 0 5.303 3.438 9.8 8.205 11.387.6.113.82-.258.82-.577 0-.285-.011-1.04-.017-2.04-3.338.726-4.042-1.61-4.042-1.61-.546-1.387-1.333-1.756-1.333-1.756-1.089-.745.083-.73.083-.73 1.205.085 1.84 1.236 1.84 1.236 1.07 1.834 2.807 1.304 3.492.997.108-.776.418-1.304.762-1.604-2.665-.303-5.467-1.332-5.467-5.93 0-1.31.468-2.381 1.235-3.22-.123-.303-.535-1.523.117-3.176 0 0 1.008-.322 3.301 1.23a11.52 11.52 0 0 1 3.003-.404c1.02.005 2.047.138 3.003.404 2.291-1.552 3.297-1.23 3.297-1.23.654 1.653.242 2.873.12 3.176.77.839 1.233 1.91 1.233 3.22 0 4.61-2.807 5.624-5.48 5.92.43.372.823 1.102.823 2.222 0 1.604-.015 2.896-.015 3.286 0 .321.216.694.825.576C20.565 22.092 24 17.592 24 12.297 24 5.67 18.627.297 12 .297"
  />
</svg>
