<svg width="1024" height="1024" viewBox="0 0 1024 1024" xmlns="http://www.w3.org/2000/svg" role="img" aria-label="Favicon logo">
  <defs>
    <linearGradient id="bg" x1="0" y1="0" x2="1" y2="1">
      <stop offset="0" stop-color="#2f2f2f"/>
      <stop offset="1" stop-color="#262626"/>
    </linearGradient>
  </defs>
  <rect x="0" y="0" width="1024" height="1024" rx="225" fill="url(#bg)"/>
  <path fill="#f5f0e4" fill-rule="evenodd" d="
      M 699 198 L 506 342 L 505 626 L 463 657 L 454 653 L 454 474 L 367 538 L 366 588 L 318 553 L 318 682 L 508 825 L 699 683 Z
      M 342 600 L 497 715 L 496 786 L 341 670 Z
      M 675 599 L 676 670 L 521 786 L 520 715 Z
      M 428 522 L 430 635 L 390 605 L 390 551 Z
      M 569 325 L 570 648 L 508 694 L 476 669 L 530 628 L 529 355 Z
      M 675 246 L 676 568 L 594 629 L 593 307 Z
  "/>
</svg>
